<svg xmlns="http://www.w3.org/2000/svg" width="680" height="560">
<line x1="60" y1="30" x2="240" y2="30" stroke="black"/>
<line x1="240" y1="30" x2="420" y2="30" stroke="black"/>
<line x1="420" y1="30" x2="600" y2="30" stroke="black"/>
<line x1="240" y1="30" x2="420" y2="100" stroke="black"/>
<line x1="240" y1="30" x2="420" y2="170" stroke="black"/>
<line x1="240" y1="30" x2="420" y2="240" stroke="black"/>
<line x1="420" y1="240" x2="600" y2="100" stroke="black"/>
<line x1="420" y1="240" x2="600" y2="170" stroke="black"/>
<line x1="420" y1="240" x2="600" y2="240" stroke="black"/>
<line x1="420" y1="240" x2="600" y2="310" stroke="black"/>
<line x1="240" y1="30" x2="420" y2="310" stroke="black"/>
<line x1="420" y1="310" x2="600" y2="380" stroke="black"/>
<line x1="240" y1="30" x2="420" y2="380" stroke="black"/>
<line x1="240" y1="30" x2="420" y2="450" stroke="black"/>
<line x1="240" y1="30" x2="420" y2="520" stroke="black"/>
<line x1="420" y1="520" x2="600" y2="450" stroke="black"/>
<rect x="10" y="15" width="100" height="30" fill="#eef" stroke="#333"/>
<text x="60" y="30" font-size="10" text-anchor="middle" alignment-baseline="middle">classification.py</text>
<rect x="190" y="15" width="100" height="30" fill="#eef" stroke="#333"/>
<text x="240" y="30" font-size="10" text-anchor="middle" alignment-baseline="middle">launch_finetuning_classification</text>
<rect x="370" y="15" width="100" height="30" fill="#eef" stroke="#333"/>
<text x="420" y="30" font-size="10" text-anchor="middle" alignment-baseline="middle">create_optimizer</text>
<rect x="550" y="15" width="100" height="30" fill="#eef" stroke="#333"/>
<text x="600" y="30" font-size="10" text-anchor="middle" alignment-baseline="middle">get_parameter_groups</text>
<rect x="370" y="85" width="100" height="30" fill="#eef" stroke="#333"/>
<text x="420" y="100" font-size="10" text-anchor="middle" alignment-baseline="middle">prepare_finetuning_args</text>
<rect x="370" y="155" width="100" height="30" fill="#eef" stroke="#333"/>
<text x="420" y="170" font-size="10" text-anchor="middle" alignment-baseline="middle">setup_for_distributed</text>
<rect x="370" y="225" width="100" height="30" fill="#eef" stroke="#333"/>
<text x="420" y="240" font-size="10" text-anchor="middle" alignment-baseline="middle">train_one_epoch</text>
<rect x="550" y="85" width="100" height="30" fill="#eef" stroke="#333"/>
<text x="600" y="100" font-size="10" text-anchor="middle" alignment-baseline="middle">get_loss_scale_for_deepspeed</text>
<rect x="550" y="155" width="100" height="30" fill="#eef" stroke="#333"/>
<text x="600" y="170" font-size="10" text-anchor="middle" alignment-baseline="middle">train_class_batch</text>
<rect x="550" y="225" width="100" height="30" fill="#eef" stroke="#333"/>
<text x="600" y="240" font-size="10" text-anchor="middle" alignment-baseline="middle">utils.MetricLogger</text>
<rect x="550" y="295" width="100" height="30" fill="#eef" stroke="#333"/>
<text x="600" y="310" font-size="10" text-anchor="middle" alignment-baseline="middle">utils.SmoothedValue</text>
<rect x="370" y="295" width="100" height="30" fill="#eef" stroke="#333"/>
<text x="420" y="310" font-size="10" text-anchor="middle" alignment-baseline="middle">utils.auto_load_model</text>
<rect x="550" y="365" width="100" height="30" fill="#eef" stroke="#333"/>
<text x="600" y="380" font-size="10" text-anchor="middle" alignment-baseline="middle">_load_checkpoint_for_ema</text>
<rect x="370" y="365" width="100" height="30" fill="#eef" stroke="#333"/>
<text x="420" y="380" font-size="10" text-anchor="middle" alignment-baseline="middle">utils.cosine_scheduler</text>
<rect x="370" y="435" width="100" height="30" fill="#eef" stroke="#333"/>
<text x="420" y="450" font-size="10" text-anchor="middle" alignment-baseline="middle">utils.get_resources</text>
<rect x="370" y="505" width="100" height="30" fill="#eef" stroke="#333"/>
<text x="420" y="520" font-size="10" text-anchor="middle" alignment-baseline="middle">validation_one_epoch</text>
<rect x="550" y="435" width="100" height="30" fill="#eef" stroke="#333"/>
<text x="600" y="450" font-size="10" text-anchor="middle" alignment-baseline="middle">_validation_common</text>
</svg>